PathFileType	4	(X/Y/Z)	/Users/mathieubourgeois/Desktop/Analyse/Traitement/Sujet_05/Transformed_Static_Sujet_05_Tpose.trc
DataRate	CameraRate	NumFrames	NumMarkers	Units	OrigDataRate	OrigDataStartFrame	OrigNumFrames
120.000000	120.000000	4	36	mm	120.000000	116	232
Frame#	Time	RFHD			RANE			STRN			LANI			LKNE			T10			RHUM			RWRB			C7			LFWT			LTOE			RTOE			LWRA			LBWT			RBWT			RFWT			LKNI			RKNI			RKNE			LANE			RANI			LHEE			RHEE			LHUM			LRAD			RRAD			RWRA			LWRB			LFHD			LBHD			RBHD			RSHO			LSHO			CLAV			LCAR			RCAR			
		X1	Y1	Z1	X2	Y2	Z2	X3	Y3	Z3	X4	Y4	Z4	X5	Y5	Z5	X6	Y6	Z6	X7	Y7	Z7	X8	Y8	Z8	X9	Y9	Z9	X10	Y10	Z10	X11	Y11	Z11	X12	Y12	Z12	X13	Y13	Z13	X14	Y14	Z14	X15	Y15	Z15	X16	Y16	Z16	X17	Y17	Z17	X18	Y18	Z18	X19	Y19	Z19	X20	Y20	Z20	X21	Y21	Z21	X22	Y22	Z22	X23	Y23	Z23	X24	Y24	Z24	X25	Y25	Z25	X26	Y26	Z26	X27	Y27	Z27	X28	Y28	Z28	X29	Y29	Z29	X30	Y30	Z30	X31	Y31	Z31	X32	Y32	Z32	X33	Y33	Z33	X34	Y34	Z34	X35	Y35	Z35	X36	Y36	Z36	

117	0.9666666666666667	-717.9178466796875	1633.061767578125	357.1632690429685	-822.84619140625	75.55050659179689	193.7425231933593	-629.496826171875	1204.806396484375	371.2513732910155	-536.7797241210938	83.61608123779298	227.3363494873046	-464.2658386230469	480.4746704101562	256.2057189941405	-643.7427978515625	1204.543823242188	146.7829284667967	-1065.17822265625	1357.599487304688	226.0624084472654	-1300.070556640625	1434.105224609375	278.9008789062497	-643.6375122070312	1434.763671875	188.9373321533201	-511.5883178710938	929.882568359375	335.9424438476561	-472.5077209472657	34.33569335937502	385.5517578124999	-829.7869262695312	37.0778388977051	391.3319702148436	46.19915771484372	1377.126098632812	239.9595642089843	-582.7100219726562	957.8780517578125	165.0959014892577	-716.2444458007812	958.4736938476562	170.4800415039061	-751.4558715820312	922.1882934570312	345.2770385742186	-567.4942626953125	446.0416259765625	245.4565277099609	-702.82861328125	426.2846374511719	261.4826354980468	-799.96435546875	476.1198425292969	262.5052185058592	-463.7226867675781	87.08299255371095	186.283462524414	-747.3216552734375	73.97725677490236	239.6634674072265	-511.4110412597656	44.41740036010743	142.1653289794921	-771.9678955078125	38.2196388244629	147.5394134521484	-208.5897979736328	1378.396484375	197.8960571289061	-219.5818481445313	1329.997314453125	250.991729736328	-1058.34912109375	1319.998168945312	287.495391845703	-1312.839721679688	1364.921997070312	261.278137207031	32.67956161499021	1446.339965820312	243.7644042968749	-569.4459228515625	1645.682250976562	358.2515869140623	-555.1614990234375	1573.963134765625	222.3388671874999	-690.3179931640625	1566.996215820312	198.2118682861326	-791.3919067382812	1440.892700195312	238.7914428710936	-503.1919250488281	1441.130004882812	224.8233032226561	-640.4364013671875	1379.8671875	322.2988281249999	117.3633651733398	1430.739501953125	213.4706420898437	-1393.931640625	1411.126586914062	239.6122283935544	
118	0.975	-717.9547119140625	1633.068237304688	357.2380676269529	-822.8351440429688	75.54299926757814	193.7454833984374	-629.5130615234375	1204.794189453125	371.3022155761718	-536.7808837890625	83.62052154541017	227.3386077880859	-464.2779541015626	480.4742126464844	256.191436767578	-643.7520141601562	1204.569213867188	146.8502044677733	-1065.2041015625	1357.53759765625	226.1287384033201	-1300.103393554688	1434.017822265625	278.9386596679685	-643.6709594726562	1434.774536132812	189.0045318603514	-511.5790710449219	929.866455078125	335.9603271484374	-472.5144042968751	34.32537841796877	385.5505065917968	-829.7896728515625	37.08308410644533	391.3455200195311	46.17491149902341	1377.140747070312	240.0818328857421	-582.7340087890625	957.8883056640625	165.1182403564452	-716.2530517578125	958.4730224609375	170.5232086181639	-751.4652099609375	922.1873168945312	345.2978210449217	-567.5	446.0311279296875	245.4627075195312	-702.837890625	426.2969055175781	261.4758911132811	-799.9616088867188	476.1304931640625	262.5165100097655	-463.7311401367188	87.08065795898439	186.2675781249999	-747.3488159179688	73.97433471679689	239.6837158203124	-511.4059753417969	44.41979217529298	142.1553039550781	-771.9578247070312	38.21226882934571	147.5263061523437	-208.6086883544922	1378.436645507812	197.9731140136718	-219.6199645996094	1330.005859375	251.0816345214843	-1058.357543945312	1319.946899414062	287.545684814453	-1312.868774414062	1364.844360351562	261.328186035156	32.6621284484863	1446.355834960938	243.8927764892577	-569.4881591796875	1645.70166015625	358.3007202148436	-555.1891479492188	1573.963989257812	222.3998565673827	-690.371826171875	1566.961669921875	198.2827911376951	-791.416015625	1440.883422851562	238.8679962158201	-503.2085876464844	1441.146850585938	224.9206237792967	-640.4535522460938	1379.85302734375	322.3800048828124	117.3486022949218	1430.74462890625	213.5747528076171	-1393.964233398438	1411.027099609375	239.6451568603513	
119	0.9833333333333333	-717.9971313476562	1633.073608398438	357.3045349121091	-822.8373413085938	75.54073333740236	193.7501068115233	-629.5198974609375	1204.761962890625	371.3514709472655	-536.7735595703125	83.60545349121095	227.3396301269531	-464.2758789062501	480.4687805175781	256.1826782226561	-643.7786254882812	1204.57666015625	146.9050903320311	-1065.223510742188	1357.489013671875	226.151168823242	-1300.141479492188	1433.933471679688	278.9764404296872	-643.6926879882812	1434.781860351562	189.0772552490233	-511.5726623535157	929.8638916015625	335.9723815917968	-472.5016784667969	34.32725906372072	385.5508728027343	-829.7860717773438	37.06878662109377	391.3387145996093	46.14957046508786	1377.161254882812	240.2161712646484	-582.7430419921875	957.8975219726562	165.1622772216795	-716.2569580078125	958.4769287109375	170.5495147705077	-751.4658813476562	922.1716918945312	345.3220825195311	-567.5012817382812	446.0326232910156	245.4457702636718	-702.8276977539062	426.2894897460938	261.4707641601561	-799.9723510742188	476.1294555664062	262.5302124023436	-463.7156066894531	87.09703826904298	186.2694091796874	-747.3425903320312	73.97191619873048	239.6854705810546	-511.4132995605469	44.40126419067384	142.1591339111328	-771.9490966796875	38.20890808105469	147.5160675048827	-208.6377410888672	1378.44921875	198.0743408203124	-219.6495666503907	1330.019287109375	251.1740722656249	-1058.37353515625	1319.905883789062	287.5846862792967	-1312.897216796875	1364.779174804688	261.391906738281	32.64598464965817	1446.37744140625	244.0011444091796	-569.5271606445312	1645.727294921875	358.3581237792967	-555.2440185546875	1573.968017578125	222.4517364501952	-690.4121704101562	1566.95751953125	198.3437042236326	-791.4513549804688	1440.872314453125	238.9572448730467	-503.2449951171875	1441.157470703125	225.0018768310545	-640.48291015625	1379.851928710938	322.4677734374999	117.3247833251953	1430.749267578125	213.7371215820312	-1393.986083984375	1410.933837890625	239.6766052246091	
120	0.9916666666666667	-718.0350341796875	1633.073852539062	357.3952026367185	-822.8387451171875	75.53213500976564	193.744171142578	-629.5367431640625	1204.748046875	371.4161376953124	-536.7887573242188	83.64260101318361	227.3467102050781	-464.2767333984376	480.4827270507812	256.1657409667968	-643.7980346679688	1204.580810546875	146.9306182861326	-1065.244750976562	1357.451171875	226.2016754150388	-1300.1748046875	1433.85888671875	279.0318603515622	-643.72119140625	1434.786743164062	189.1573638916014	-511.5888366699219	929.8543701171875	335.982940673828	-472.5057373046876	34.32622146606447	385.5524902343749	-829.7954711914062	37.06618118286135	391.3350219726561	46.13500213623044	1377.1875	240.3735351562499	-582.7486572265625	957.9100341796875	165.1773376464842	-716.2710571289062	958.5069580078125	170.568161010742	-751.4749755859375	922.1685791015625	345.3439331054686	-567.5000610351562	446.041748046875	245.4498748779296	-702.8359375	426.2908325195312	261.4685668945311	-799.9692993164062	476.1204833984375	262.4885253906248	-463.7253723144531	87.07932281494142	186.288101196289	-747.3336181640625	73.95614624023439	239.6773834228515	-511.4085388183594	44.40593719482423	142.159927368164	-771.9646606445312	38.21273040771485	147.5278930664062	-208.6429290771485	1378.436645507812	198.1686096191405	-219.6777496337891	1330.038818359375	251.2834625244139	-1058.428955078125	1319.696655273438	287.4705200195311	-1312.920776367188	1364.710571289062	261.3890991210935	32.62616729736325	1446.396850585938	244.0843963623046	-569.5511474609375	1645.753784179688	358.3892517089842	-555.2841796875	1573.977172851562	222.5037689208983	-690.4534912109375	1566.932006835938	198.429733276367	-791.4803466796875	1440.875244140625	239.0370788574217	-503.2598571777344	1441.161987304688	225.0854187011717	-640.5056762695312	1379.8447265625	322.5468749999999	117.3171615600586	1430.758544921875	213.8321075439453	-1394.015502929688	1410.8369140625	239.7066955566404	
